<mxfile host="Electron" agent="Mozilla/5.0 (Windows NT 10.0; Win64; x64) AppleWebKit/537.36 (KHTML, like Gecko) draw.io/28.1.2 Chrome/138.0.7204.243 Electron/37.4.0 Safari/537.36" version="28.1.2">
  <diagram name="Page-1" id="7aykDE81MITBaBoGE77J">
    <mxGraphModel dx="1042" dy="626" grid="1" gridSize="10" guides="1" tooltips="1" connect="1" arrows="1" fold="1" page="1" pageScale="1" pageWidth="850" pageHeight="1100" math="0" shadow="0">
      <root>
        <mxCell id="0" />
        <mxCell id="1" parent="0" />
        <mxCell id="nVb-LVznlpOZfAyI2bwn-1" value="&lt;font style=&quot;font-size: 18px;&quot;&gt;&lt;b style=&quot;&quot;&gt;BRONZE LAYER&lt;/b&gt;&lt;/font&gt;" style="rounded=1;whiteSpace=wrap;html=1;shadow=1;fillColor=#f0a30a;fontColor=#000000;strokeColor=none;" parent="1" vertex="1">
          <mxGeometry x="200" y="40" width="159" height="60" as="geometry" />
        </mxCell>
        <mxCell id="nVb-LVznlpOZfAyI2bwn-2" value="&lt;font style=&quot;font-size: 18px;&quot;&gt;&lt;b&gt;SILVER LAYER&lt;/b&gt;&lt;/font&gt;" style="rounded=1;whiteSpace=wrap;html=1;fillColor=#eeeeee;strokeColor=none;shadow=1;" parent="1" vertex="1">
          <mxGeometry x="440" y="40" width="158" height="60" as="geometry" />
        </mxCell>
        <mxCell id="nVb-LVznlpOZfAyI2bwn-3" value="&lt;font style=&quot;font-size: 18px;&quot;&gt;&lt;b&gt;GOLD LAYER&lt;/b&gt;&lt;/font&gt;" style="rounded=1;whiteSpace=wrap;html=1;fillColor=#ffff88;strokeColor=none;shadow=1;" parent="1" vertex="1">
          <mxGeometry x="680" y="40" width="159" height="60" as="geometry" />
        </mxCell>
        <mxCell id="nVb-LVznlpOZfAyI2bwn-4" value="Raw, unprocessed data as-is from Sources" style="rounded=0;whiteSpace=wrap;html=1;fontSize=14;strokeColor=#B3B3B3;" parent="1" vertex="1">
          <mxGeometry x="159" y="140" width="200" height="50" as="geometry" />
        </mxCell>
        <mxCell id="nVb-LVznlpOZfAyI2bwn-5" value="&lt;span style=&quot;font-size: 14px;&quot;&gt;Traceability &amp;amp; Debugging&lt;/span&gt;" style="rounded=0;whiteSpace=wrap;html=1;strokeColor=#B3B3B3;" parent="1" vertex="1">
          <mxGeometry x="159" y="200" width="200" height="50" as="geometry" />
        </mxCell>
        <mxCell id="nVb-LVznlpOZfAyI2bwn-6" value="Definition" style="rounded=0;whiteSpace=wrap;html=1;strokeColor=#D4E1F5;fillColor=#F4FCFF;" parent="1" vertex="1">
          <mxGeometry x="30" y="140" width="120" height="50" as="geometry" />
        </mxCell>
        <mxCell id="nVb-LVznlpOZfAyI2bwn-7" value="Objective" style="rounded=0;whiteSpace=wrap;html=1;strokeColor=#D4E1F5;fillColor=#F4FCFF;" parent="1" vertex="1">
          <mxGeometry x="30" y="200" width="120" height="50" as="geometry" />
        </mxCell>
        <mxCell id="nVb-LVznlpOZfAyI2bwn-8" value="Object Type" style="rounded=0;whiteSpace=wrap;html=1;strokeColor=#D4E1F5;fillColor=#F4FCFF;" parent="1" vertex="1">
          <mxGeometry x="30" y="260" width="120" height="50" as="geometry" />
        </mxCell>
        <mxCell id="nVb-LVznlpOZfAyI2bwn-9" value="&lt;font style=&quot;font-size: 14px;&quot;&gt;Tables&lt;/font&gt;" style="rounded=0;whiteSpace=wrap;html=1;strokeColor=#B3B3B3;" parent="1" vertex="1">
          <mxGeometry x="159" y="260" width="200" height="50" as="geometry" />
        </mxCell>
        <mxCell id="nVb-LVznlpOZfAyI2bwn-10" value="Load Method" style="rounded=0;whiteSpace=wrap;html=1;strokeColor=#D4E1F5;fillColor=#F4FCFF;" parent="1" vertex="1">
          <mxGeometry x="30" y="320" width="120" height="50" as="geometry" />
        </mxCell>
        <mxCell id="nVb-LVznlpOZfAyI2bwn-11" value="&lt;font style=&quot;font-size: 14px;&quot;&gt;Full Load&lt;/font&gt;&lt;div&gt;&lt;font style=&quot;font-size: 14px;&quot;&gt;(Truncate &amp;amp; Bulk Insert)&lt;/font&gt;&lt;/div&gt;" style="rounded=0;whiteSpace=wrap;html=1;strokeColor=#B3B3B3;" parent="1" vertex="1">
          <mxGeometry x="159" y="320" width="200" height="50" as="geometry" />
        </mxCell>
        <mxCell id="nVb-LVznlpOZfAyI2bwn-12" value="&lt;font style=&quot;font-size: 16px;&quot;&gt;None (as-is)&lt;/font&gt;" style="rounded=0;whiteSpace=wrap;html=1;strokeColor=#B3B3B3;" parent="1" vertex="1">
          <mxGeometry x="159" y="380" width="200" height="120" as="geometry" />
        </mxCell>
        <mxCell id="nVb-LVznlpOZfAyI2bwn-13" value="Data Transformation" style="rounded=0;whiteSpace=wrap;html=1;strokeColor=#D4E1F5;fillColor=#F4FCFF;" parent="1" vertex="1">
          <mxGeometry x="30" y="380" width="120" height="120" as="geometry" />
        </mxCell>
        <mxCell id="nVb-LVznlpOZfAyI2bwn-14" value="Data Modelling" style="rounded=0;whiteSpace=wrap;html=1;strokeColor=#D4E1F5;fillColor=#F4FCFF;" parent="1" vertex="1">
          <mxGeometry x="30" y="510" width="120" height="70" as="geometry" />
        </mxCell>
        <mxCell id="nVb-LVznlpOZfAyI2bwn-15" value="&lt;font style=&quot;font-size: 16px;&quot;&gt;None (as-is)&lt;/font&gt;" style="rounded=0;whiteSpace=wrap;html=1;strokeColor=#B3B3B3;" parent="1" vertex="1">
          <mxGeometry x="159" y="510" width="200" height="70" as="geometry" />
        </mxCell>
        <mxCell id="nVb-LVznlpOZfAyI2bwn-16" value="Target Audience" style="rounded=0;whiteSpace=wrap;html=1;strokeColor=#D4E1F5;fillColor=#F4FCFF;" parent="1" vertex="1">
          <mxGeometry x="30" y="590" width="120" height="50" as="geometry" />
        </mxCell>
        <mxCell id="nVb-LVznlpOZfAyI2bwn-17" value="&lt;font style=&quot;font-size: 14px;&quot;&gt;Data Engineers&lt;/font&gt;" style="rounded=0;whiteSpace=wrap;html=1;strokeColor=#B3B3B3;" parent="1" vertex="1">
          <mxGeometry x="159" y="590" width="200" height="50" as="geometry" />
        </mxCell>
        <mxCell id="nVb-LVznlpOZfAyI2bwn-18" value="Clean &amp;amp; Standardise Data" style="rounded=0;whiteSpace=wrap;html=1;fontSize=14;strokeColor=#B3B3B3;" parent="1" vertex="1">
          <mxGeometry x="398" y="140" width="200" height="50" as="geometry" />
        </mxCell>
        <mxCell id="nVb-LVznlpOZfAyI2bwn-19" value="&lt;span style=&quot;font-size: 14px;&quot;&gt;(Intermediate Layer)&lt;/span&gt;&lt;div&gt;&lt;span style=&quot;font-size: 14px;&quot;&gt;Prepare Data for Analysis&lt;/span&gt;&lt;/div&gt;" style="rounded=0;whiteSpace=wrap;html=1;strokeColor=#B3B3B3;" parent="1" vertex="1">
          <mxGeometry x="398" y="200" width="200" height="50" as="geometry" />
        </mxCell>
        <mxCell id="nVb-LVznlpOZfAyI2bwn-20" value="&lt;font style=&quot;font-size: 14px;&quot;&gt;Tables&lt;/font&gt;" style="rounded=0;whiteSpace=wrap;html=1;strokeColor=#B3B3B3;" parent="1" vertex="1">
          <mxGeometry x="398" y="260" width="200" height="50" as="geometry" />
        </mxCell>
        <mxCell id="nVb-LVznlpOZfAyI2bwn-21" value="&lt;font style=&quot;font-size: 14px;&quot;&gt;Full Load&lt;/font&gt;&lt;div&gt;&lt;font style=&quot;font-size: 14px;&quot;&gt;(Truncate &amp;amp; Bulk Insert)&lt;/font&gt;&lt;/div&gt;" style="rounded=0;whiteSpace=wrap;html=1;strokeColor=#B3B3B3;" parent="1" vertex="1">
          <mxGeometry x="398" y="320" width="200" height="50" as="geometry" />
        </mxCell>
        <mxCell id="nVb-LVznlpOZfAyI2bwn-22" value="&lt;blockquote style=&quot;margin: 0 0 0 40px; border: none; padding: 0px;&quot;&gt;&lt;ul style=&quot;padding-left: 10px;&quot;&gt;&lt;li style=&quot;&quot;&gt;&lt;font style=&quot;font-size: 14px;&quot;&gt;Data Cleaning&lt;/font&gt;&lt;/li&gt;&lt;li style=&quot;&quot;&gt;&lt;font style=&quot;font-size: 14px;&quot;&gt;Data Standardisation&lt;/font&gt;&lt;/li&gt;&lt;li style=&quot;&quot;&gt;&lt;font style=&quot;font-size: 14px;&quot;&gt;Data Normalisation&lt;/font&gt;&lt;/li&gt;&lt;li style=&quot;&quot;&gt;&lt;font style=&quot;font-size: 14px;&quot;&gt;Derived Columns&lt;/font&gt;&lt;/li&gt;&lt;li style=&quot;&quot;&gt;&lt;font style=&quot;font-size: 14px;&quot;&gt;Data Enrichment&lt;/font&gt;&lt;/li&gt;&lt;/ul&gt;&lt;/blockquote&gt;" style="rounded=0;whiteSpace=wrap;html=1;align=left;strokeColor=#B3B3B3;" parent="1" vertex="1">
          <mxGeometry x="398" y="380" width="200" height="120" as="geometry" />
        </mxCell>
        <mxCell id="nVb-LVznlpOZfAyI2bwn-23" value="&lt;font style=&quot;font-size: 16px;&quot;&gt;None (as-is)&lt;/font&gt;" style="rounded=0;whiteSpace=wrap;html=1;strokeColor=#B3B3B3;" parent="1" vertex="1">
          <mxGeometry x="398" y="510" width="200" height="70" as="geometry" />
        </mxCell>
        <mxCell id="nVb-LVznlpOZfAyI2bwn-24" value="&lt;font style=&quot;font-size: 14px;&quot;&gt;Data Engineers&lt;/font&gt;" style="rounded=0;whiteSpace=wrap;html=1;strokeColor=#B3B3B3;" parent="1" vertex="1">
          <mxGeometry x="398" y="590" width="200" height="50" as="geometry" />
        </mxCell>
        <mxCell id="nVb-LVznlpOZfAyI2bwn-25" value="Business-ready Data" style="rounded=0;whiteSpace=wrap;html=1;fontSize=14;strokeColor=#B3B3B3;" parent="1" vertex="1">
          <mxGeometry x="640" y="140" width="200" height="50" as="geometry" />
        </mxCell>
        <mxCell id="nVb-LVznlpOZfAyI2bwn-26" value="&lt;span style=&quot;font-size: 14px;&quot;&gt;Provide data to be consumed by the end-users&lt;/span&gt;" style="rounded=0;whiteSpace=wrap;html=1;strokeColor=#B3B3B3;" parent="1" vertex="1">
          <mxGeometry x="640" y="200" width="200" height="50" as="geometry" />
        </mxCell>
        <mxCell id="nVb-LVznlpOZfAyI2bwn-27" value="&lt;font style=&quot;font-size: 14px;&quot;&gt;Tables&lt;/font&gt;" style="rounded=0;whiteSpace=wrap;html=1;strokeColor=#B3B3B3;" parent="1" vertex="1">
          <mxGeometry x="640" y="260" width="200" height="50" as="geometry" />
        </mxCell>
        <mxCell id="nVb-LVznlpOZfAyI2bwn-28" value="&lt;font style=&quot;font-size: 14px;&quot;&gt;Full Load&lt;/font&gt;&lt;div&gt;&lt;font style=&quot;font-size: 14px;&quot;&gt;(Truncate &amp;amp; Bulk Insert)&lt;/font&gt;&lt;/div&gt;" style="rounded=0;whiteSpace=wrap;html=1;strokeColor=#B3B3B3;" parent="1" vertex="1">
          <mxGeometry x="640" y="320" width="200" height="50" as="geometry" />
        </mxCell>
        <mxCell id="nVb-LVznlpOZfAyI2bwn-29" value="&lt;div style=&quot;text-align: left;&quot;&gt;&lt;ul style=&quot;padding-left: 10px;&quot;&gt;&lt;li&gt;&lt;span style=&quot;background-color: transparent; color: light-dark(rgb(0, 0, 0), rgb(255, 255, 255));&quot;&gt;&lt;font style=&quot;font-size: 14px;&quot;&gt;Data Integration&lt;/font&gt;&lt;/span&gt;&lt;/li&gt;&lt;li&gt;&lt;font style=&quot;font-size: 14px;&quot;&gt;Data Aggregation&lt;/font&gt;&lt;/li&gt;&lt;li&gt;&lt;font style=&quot;font-size: 14px;&quot;&gt;Business Logic &amp;amp; Rules&lt;/font&gt;&lt;/li&gt;&lt;/ul&gt;&lt;/div&gt;" style="rounded=0;whiteSpace=wrap;html=1;strokeColor=#B3B3B3;" parent="1" vertex="1">
          <mxGeometry x="640" y="380" width="200" height="120" as="geometry" />
        </mxCell>
        <mxCell id="nVb-LVznlpOZfAyI2bwn-30" value="S&lt;font style=&quot;font-size: 14px;&quot;&gt;tar Schema&lt;/font&gt;&lt;div&gt;&lt;font style=&quot;font-size: 14px;&quot;&gt;Aggregate Objects&lt;/font&gt;&lt;/div&gt;&lt;div&gt;&lt;font style=&quot;font-size: 14px;&quot;&gt;Flat Tables&lt;/font&gt;&lt;/div&gt;" style="rounded=0;whiteSpace=wrap;html=1;strokeColor=#B3B3B3;" parent="1" vertex="1">
          <mxGeometry x="640" y="510" width="200" height="70" as="geometry" />
        </mxCell>
        <mxCell id="nVb-LVznlpOZfAyI2bwn-31" value="&lt;font style=&quot;font-size: 14px;&quot;&gt;Data Analyst&lt;/font&gt;&lt;div&gt;&lt;span style=&quot;font-size: 14px;&quot;&gt;Business User&lt;/span&gt;&lt;/div&gt;" style="rounded=0;whiteSpace=wrap;html=1;strokeColor=#B3B3B3;" parent="1" vertex="1">
          <mxGeometry x="640" y="590" width="200" height="50" as="geometry" />
        </mxCell>
        <mxCell id="nVb-LVznlpOZfAyI2bwn-32" value="" style="dashed=0;outlineConnect=0;html=1;align=center;labelPosition=center;verticalLabelPosition=bottom;verticalAlign=top;shape=mxgraph.webicons.buffer;gradientColor=#DFDEDE;fillColor=#FFB570;shadow=1;" parent="1" vertex="1">
          <mxGeometry x="158" y="40" width="41" height="60" as="geometry" />
        </mxCell>
        <mxCell id="nVb-LVznlpOZfAyI2bwn-33" value="" style="dashed=0;outlineConnect=0;html=1;align=center;labelPosition=center;verticalLabelPosition=bottom;verticalAlign=top;shape=mxgraph.webicons.buffer;gradientColor=#DFDEDE;shadow=1;" parent="1" vertex="1">
          <mxGeometry x="398" y="40" width="41" height="60" as="geometry" />
        </mxCell>
        <mxCell id="nVb-LVznlpOZfAyI2bwn-34" value="" style="dashed=0;outlineConnect=0;html=1;align=center;labelPosition=center;verticalLabelPosition=bottom;verticalAlign=top;shape=mxgraph.webicons.buffer;gradientColor=#DFDEDE;fillColor=#FFFF66;shadow=1;" parent="1" vertex="1">
          <mxGeometry x="638" y="40" width="41" height="60" as="geometry" />
        </mxCell>
        <mxCell id="nVb-LVznlpOZfAyI2bwn-36" value="&lt;font style=&quot;font-size: 20px;&quot;&gt;&lt;b&gt;Fig: Data Warehouse Layout&lt;/b&gt;&lt;/font&gt;" style="text;html=1;align=center;verticalAlign=middle;whiteSpace=wrap;rounded=0;" parent="1" vertex="1">
          <mxGeometry x="284" y="670" width="282" height="30" as="geometry" />
        </mxCell>
      </root>
    </mxGraphModel>
  </diagram>
</mxfile>
